<?xml version="1.0" standalone="no"?> <!DOCTYPE svg PUBLIC "-//W3C//DTD SVG 1.0//EN" "http://www.w3.org/TR/2001/REC-SVG-20010904/DTD/svg10.dtd" > <svg xmlns="http://www.w3.org/2000/svg" width="100%" height="100%">
<defs >
<font id="dinpromediumhint" horiz-adv-x="1151" ><font-face
    font-family="DINPro-Medium"
    units-per-em="2048"
    panose-1="2 0 5 3 3 0 0 2 0 4"
    ascent="2132"
    descent="-485"
    alphabetic="0" />
<missing-glyph horiz-adv-x="1163" d="M166 0V1458H997V0H166ZM309 143H854V1315H309V143Z" />
<glyph unicode=" " glyph-name="space" horiz-adv-x="491" />
<glyph unicode="!" glyph-name="exclam" horiz-adv-x="679" d="M502 1458L457 434H293L248 1458H502ZM489 0H260V223H489V0Z" />
<glyph unicode="&quot;" glyph-name="quotedbl" horiz-adv-x="909" d="M750 1067H543V1458H750V1067ZM367 1067H160V1458H367V1067Z" />
<glyph unicode="#" glyph-name="numbersign" horiz-adv-x="1376" d="M1276 872H1087L1047 618H1208V426H1016L948 0H731L799 426H518L453 0H233L301 426H139V618H332L373 872H207V1065H401L465 1466H684L621 1065H899L963 1466H1180L1116 1065H1276V872ZM868 872H590L549
618H829L868 872Z" />
<glyph unicode="$" glyph-name="dollar" horiz-adv-x="1245" d="M1139 416Q1139 236 1019 124T696 -6V-233H528V-12Q379 -6 268 39T61 180L209 326Q279 255 360 224T547 186V641L494 647Q323 669 219 764Q111 864 111 1042Q111 1219 222 1333T528 1466V1651H696V1468Q818
1460 911 1422T1087 1305L946 1165Q842 1263 678 1276V834L748 823Q847 808 909 783T1020 715Q1139 611 1139 416ZM920 410Q920 509 862 561Q852 570 841 577T821 590T798 600T776 607T752 613T729 617T704 621T678 625V190Q792 201 856 258T920 410ZM547 848V1274Q442
1264 384 1203T326 1051Q326 964 381 915Q442 861 547 848Z" />
<glyph unicode="%" glyph-name="percent" horiz-adv-x="1724" d="M1606 266Q1606 137 1525 62T1319 -14T1114 61T1032 266V473Q1032 602 1113 678T1319 754T1524 678T1606 473V266ZM692 985Q692 857 611 782T406 707Q282 707 201 782T119 985V1192Q119 1321 200
1397T406 1473Q529 1473 610 1397T692 1192V985ZM1288 1458L602 0H434L1122 1458H1288ZM1448 272V467Q1448 614 1319 614T1190 467V272Q1190 125 1319 125T1448 272ZM535 991V1186Q535 1333 406 1333Q276 1333 276 1186V991Q276 846 406 846Q535 846 535 991Z"
/>
<glyph unicode="&amp;" glyph-name="ampersand" horiz-adv-x="1495" d="M1401 0H1133L1014 143Q980 113 953 94T874 47T755 3T610 -12Q386 -12 263 104T139 422Q139 481 156 534T198 627T265 707T342 774T428 834Q396 870 375 897T329 966T290 1053T276 1147Q276
1288 374 1379T633 1470Q787 1470 883 1378T979 1145Q979 994 823 887L717 813L1024 446Q1064 503 1082 571T1102 739H1303Q1292 450 1157 291L1401 0ZM889 291L543 702Q494 669 466 646T406 589T361 515T346 426Q346 318 421 248T610 178Q688 178 754 203T889
291ZM778 1143Q778 1205 738 1246T633 1288Q567 1288 528 1248T489 1145Q489 1103 515 1059T602 944L672 991Q722 1025 750 1060T778 1143Z" />
<glyph unicode="&apos;" glyph-name="quotesingle" horiz-adv-x="526" d="M367 1067H160V1458H367V1067Z" />
<glyph unicode="(" glyph-name="parenleft" horiz-adv-x="649" d="M530 -51L389 -193Q381 -185 358 -162T325 -129T298 -100T269 -66T246 -35T223 2Q194 54 185 109T176 240V1219Q176 1294 185 1349T223 1456Q233 1474 246 1492T269 1524T297 1557T325 1587T357
1619T389 1651L530 1509Q496 1478 466 1445T416 1374Q385 1316 385 1206V252Q385 142 416 84Q425 68 434 54T456 25T476 3T503 -24T530 -51Z" />
<glyph unicode=")" glyph-name="parenright" horiz-adv-x="649" d="M475 240Q475 89 426 2Q407 -33 377 -70T328 -126T262 -193L119 -49Q124 -44 138 -30T158 -10T174 6T190 25T204 42T218 63T231 86Q262 144 262 252V1206Q262 1314 231 1372Q224 1386 215 1399T200
1421T182 1443T164 1462T142 1484T119 1507L262 1651Q310 1603 328 1584T376 1528T426 1456Q475 1369 475 1219V240Z" />
<glyph unicode="*" glyph-name="asterisk" horiz-adv-x="993" d="M868 954L793 821L565 963L573 694H420L428 963L201 821L125 954L360 1079L125 1206L201 1339L428 1198L420 1464H573L565 1198L793 1339L868 1206L633 1079L868 954Z" />
<glyph unicode="+" glyph-name="plus" horiz-adv-x="1091" d="M987 461H643V117H449V461H104V655H449V997H643V655H987V461Z" />
<glyph unicode="," glyph-name="comma" horiz-adv-x="557" d="M397 -123L160 -317V238H397V-123Z" />
<glyph unicode="-" glyph-name="hyphen" horiz-adv-x="872" d="M735 471H137V666H735V471Z" />
<glyph unicode="." glyph-name="period" horiz-adv-x="569" d="M410 0H160V250H410V0Z" />
<glyph unicode="/" glyph-name="slash" horiz-adv-x="778" d="M784 1610L201 -152H0L584 1610H784Z" />
<glyph unicode="0" glyph-name="zero" horiz-adv-x="1091" d="M967 406Q967 216 846 102T545 -12T246 101T125 406V1053Q125 1243 245 1356T545 1470Q661 1470 756 1421T909 1276T967 1053V406ZM758 412V1047Q758 1154 701 1219T545 1284Q447 1284 391 1219T334
1047V412Q334 304 390 239T545 174Q644 174 701 239T758 412Z" />
<glyph unicode="1" glyph-name="one" horiz-adv-x="1091" d="M727 0H518V1231L233 981V1212L518 1458H727V0Z" />
<glyph unicode="2" glyph-name="two" horiz-adv-x="1091" d="M977 0H129V186L690 868Q732 920 750 964T768 1063Q768 1163 712 1223T555 1284Q463 1284 402 1229T340 1059H131Q131 1244 249 1357T555 1470Q744 1470 860 1359T977 1061Q977 970 946 904T840 745L383
186H977V0Z" />
<glyph unicode="3" glyph-name="three" horiz-adv-x="1091" d="M979 410Q979 274 918 177T757 33T532 -14Q442 -14 365 10T225 83T126 212T86 395H295Q301 285 368 230T532 174Q637 174 703 238T770 416T708 592T526 655H492V838H526Q637 838 692 897T748 1059Q748
1165 687 1224T532 1284Q438 1284 380 1228T313 1075H104Q114 1257 233 1365T532 1473Q719 1473 837 1360T956 1065Q956 843 774 754Q979 662 979 410Z" />
<glyph unicode="4" glyph-name="four" horiz-adv-x="1091" d="M1020 219H864V0H662V219H72V414L586 1458H811L299 414H662V754H864V414H1020V219Z" />
<glyph unicode="5" glyph-name="five" horiz-adv-x="1091" d="M981 487Q981 354 957 264T858 100Q744 -14 551 -14Q451 -14 371 17T240 98Q143 195 129 377H338Q363 174 551 174Q645 174 702 231Q744 273 758 336T772 487Q772 557 762 609T729 705T663 770T559
793Q475 793 423 757T352 662H162V1458H948V1272H350V887Q431 971 592 971Q760 971 854 877Q930 801 955 706T981 487Z" />
<glyph unicode="6" glyph-name="six" horiz-adv-x="1091" d="M977 432Q977 232 857 110T547 -12Q355 -12 235 106T115 424Q115 507 142 590T223 782L555 1458H778L465 831Q518 854 594 854Q756 854 866 737T977 432ZM768 428Q768 538 708 609T545 680Q445 680
385 613T324 428Q324 312 385 243T545 174T706 243T768 428Z" />
<glyph unicode="7" glyph-name="seven" horiz-adv-x="1091" d="M997 1272L510 0H285L774 1272H330V1042H129V1458H997V1272Z" />
<glyph unicode="8" glyph-name="eight" horiz-adv-x="1091" d="M995 412Q995 283 935 186T773 38T545 -12Q352 -12 224 103T96 412Q96 632 297 754Q219 801 170 880T121 1067Q121 1247 242 1358T545 1470Q663 1470 760 1421T914 1279T971 1067Q971 959 922 880T795
754Q995 632 995 412ZM784 314T784 416T715 588T545 659T375 589T305 416Q305 315 374 245T545 174T715 244ZM762 1061Q762 1157 701 1220T545 1284Q451 1284 391 1221T330 1061Q330 964 390 902T545 840T701 902T762 1061Z" />
<glyph unicode="9" glyph-name="nine" horiz-adv-x="1091" d="M977 1034Q977 951 950 867T868 676L537 0H313L627 627Q574 604 496 604Q334 604 225 721T115 1026Q115 1226 235 1348T545 1470Q737 1470 857 1352T977 1034ZM768 1030Q768 1146 706 1215T545 1284T385
1215T324 1030Q324 920 383 849T545 778Q645 778 706 845T768 1030Z" />
<glyph unicode=":" glyph-name="colon" horiz-adv-x="620" d="M461 584H213V834H461V584ZM461 0H213V250H461V0Z" />
<glyph unicode=";" glyph-name="semicolon" horiz-adv-x="620" d="M455 -123L217 -317V238H455V-123ZM461 584H213V834H461V584Z" />
<glyph unicode="&lt;" glyph-name="less" horiz-adv-x="1091" d="M924 113L168 475V662L924 1024V803L422 567L924 334V113Z" />
<glyph unicode="=" glyph-name="equal" horiz-adv-x="1091" d="M987 670H104V864H987V670ZM987 272H104V467H987V272Z" />
<glyph unicode="&gt;" glyph-name="greater" horiz-adv-x="1091" d="M924 475L168 113V334L670 567L168 803V1024L924 662V475Z" />
<glyph unicode="?" glyph-name="question" horiz-adv-x="1046" d="M963 1079Q963 961 864 827L707 606Q670 556 670 496V434H461V506Q461 568 477 613T530 709L690 924Q754 1009 754 1079Q754 1166 698 1225T553 1284Q461 1284 408 1224T354 1077H145Q145 1249
261 1359T553 1470Q726 1470 844 1363T963 1079ZM680 0H449V223H680V0Z" />
<glyph unicode="@" glyph-name="at" horiz-adv-x="1507" d="M1376 -4L1180 0V102Q1129 43 1068 15T920 -14Q754 -14 651 100Q596 163 578 246T559 479Q559 625 576 709T647 856Q693 911 763 942T918 973Q1076 973 1176 858V983Q1176 1057 1159 1109T1100 1204Q1024
1280 883 1280H625Q485 1280 410 1204Q366 1160 350 1111T334 983V344Q334 258 355 212T436 119L293 -25Q200 51 166 125T131 334V985Q131 1219 252 1343Q372 1464 604 1464H903Q1133 1464 1253 1343Q1376 1220 1376 985V-4ZM1176 479Q1176 551 1167 604T1136 703T1072
773T967 797T863 773T799 703T769 604T760 479T768 355T798 257T862 188T967 164T1071 187T1136 256T1167 355T1176 479Z" />
<glyph unicode="A" glyph-name="A" horiz-adv-x="1280" d="M1264 0H1028L928 293H352L252 0H16L551 1458H729L1264 0ZM866 481L645 1128L418 481H866Z" />
<glyph unicode="B" glyph-name="B" horiz-adv-x="1357" d="M1221 412Q1221 215 1100 108T780 0H190V1458H758Q961 1458 1079 1351T1198 1059Q1198 947 1140 864T1001 750Q1095 712 1158 627T1221 412ZM999 323T999 422T936 582T760 643H412V199H760Q872 199 935
261ZM977 1051Q977 1150 913 1205T739 1260H412V842H739Q848 842 912 896T977 1051Z" />
<glyph unicode="C" glyph-name="C" horiz-adv-x="1286" d="M1182 436Q1146 222 1006 105T662 -12Q434 -12 279 143Q249 173 226 207T188 271T163 347T148 424T140 517T138 614T137 729T137 844T140 941T147 1034T163 1110T188 1187T226 1250T279 1315Q434 1470
662 1470Q866 1470 1005 1354T1182 1022H956Q929 1137 854 1204T662 1272Q529 1272 446 1184Q393 1125 376 1037T358 729T375 422T446 274Q529 186 662 186Q779 186 855 254T958 436H1182Z" />
<glyph unicode="D" glyph-name="D" horiz-adv-x="1363" d="M1227 739Q1227 536 1218 460Q1194 252 1079 137Q942 0 702 0H190V1458H702Q942 1458 1079 1321Q1115 1285 1141 1245T1184 1155T1209 1069T1222 970T1226 876T1227 775Q1227 751 1227 739ZM1006 739Q1006
921 993 1012T928 1161Q838 1260 680 1260H412V199H680Q839 199 928 297Q964 337 982 410T1003 548T1006 739Z" />
<glyph unicode="E" glyph-name="E" horiz-adv-x="1234" d="M1122 0H190V1458H1122V1260H412V834H1018V637H412V199H1122V0Z" />
<glyph unicode="F" glyph-name="F" horiz-adv-x="1198" d="M1122 1260H412V815H1018V616H412V0H190V1458H1122V1260Z" />
<glyph unicode="G" glyph-name="G" horiz-adv-x="1329" d="M1194 565Q1194 422 1164 326T1063 154Q906 -12 662 -12Q434 -12 279 143Q249 173 226 207T188 271T163 347T148 424T140 517T138 614T137 729T137 844T140 941T147 1034T163 1110T188 1187T226 1250T279
1315Q434 1470 662 1470Q775 1470 869 1435T1028 1338T1134 1194T1192 1018H969Q941 1139 862 1205T662 1272Q531 1272 446 1182Q392 1123 375 1036T358 729T375 422T446 274Q529 186 662 186Q810 186 899 289Q973 374 973 518V600H662V788H1194V565Z" />
<glyph unicode="H" glyph-name="H" horiz-adv-x="1415" d="M1225 0H1004V637H412V0H190V1458H412V836H1004V1458H1225V0Z" />
<glyph unicode="I" glyph-name="I" horiz-adv-x="602" d="M412 0H190V1458H412V0Z" />
<glyph unicode="J" glyph-name="J" horiz-adv-x="1036" d="M866 461Q866 314 800 205T626 42T381 -12Q268 -12 185 21T27 129L174 274Q219 229 263 208T381 186Q506 186 575 261T645 477V1458H866V461Z" />
<glyph unicode="K" glyph-name="K" horiz-adv-x="1347" d="M1327 0H1067L657 719L412 424V0H190V1458H412V725L1008 1458H1278L805 887L1327 0Z" />
<glyph unicode="L" glyph-name="L" horiz-adv-x="1175" d="M1114 0H190V1458H412V199H1114V0Z" />
<glyph unicode="M" glyph-name="M" horiz-adv-x="1665" d="M1477 0H1255V975L920 264H756L412 975V0H190V1458H412L838 551L1255 1458H1477V0Z" />
<glyph unicode="N" glyph-name="N" horiz-adv-x="1478" d="M1288 0H1085L412 1026V0H190V1458H393L1067 434V1458H1288V0Z" />
<glyph unicode="O" glyph-name="O" horiz-adv-x="1323" d="M1186 736T1186 729T1186 707Q1186 633 1186 598T1183 504T1175 416T1160 341T1136 268T1099 206T1047 143Q890 -12 662 -12T279 143Q249 173 226 207T188 271T163 347T148 424T140 517T138 614T137 729T137
844T140 941T147 1034T163 1110T188 1187T226 1250T279 1315Q434 1470 662 1470T1047 1315Q1081 1280 1105 1245T1145 1164T1168 1083T1181 984T1185 879T1186 751Q1186 736 1186 729ZM965 509T965 729T949 1036T879 1182Q794 1272 662 1272Q529 1272 444 1182Q391
1124 375 1037T358 729T374 422T444 276Q529 186 662 186Q794 186 879 276Q932 334 948 421Z" />
<glyph unicode="P" glyph-name="P" horiz-adv-x="1288" d="M1210 1209T1210 1016T1082 698T743 573H412V0H190V1458H743Q954 1458 1082 1334ZM989 1016Q989 1129 919 1194T731 1260H412V774H731Q848 774 918 838T989 1016Z" />
<glyph unicode="Q" glyph-name="Q" horiz-adv-x="1323" d="M1235 57L1112 -66L967 80Q838 -12 662 -12Q434 -12 279 143Q249 173 226 207T188 271T163 347T148 424T140 517T138 614T137 729T137 844T140 941T147 1034T163 1110T188 1187T226 1250T279 1315Q434
1470 662 1470T1047 1315Q1081 1280 1105 1245T1145 1164T1168 1083T1181 984T1185 879T1186 751Q1186 736 1186 729Q1186 628 1186 588T1181 477T1167 368T1139 284T1092 199L1235 57ZM965 729Q965 949 949 1036T879 1182Q794 1272 662 1272Q529 1272 444 1182Q391
1124 375 1037T358 729T374 422T444 276Q529 186 662 186Q744 186 811 233L657 387L780 510L922 369Q948 421 956 500T965 729Z" />
<glyph unicode="R" glyph-name="R" horiz-adv-x="1341" d="M1253 0H995L688 614H412V0H190V1458H756Q961 1458 1084 1339T1208 1032Q1208 882 1128 782T918 645L1253 0ZM987 1030Q987 1137 919 1198T739 1260H412V803H739Q852 803 919 863T987 1030Z" />
<glyph unicode="S" glyph-name="S" horiz-adv-x="1208" d="M1102 416Q1102 218 957 103T578 -12Q409 -12 287 32T61 180L209 326Q285 249 374 218T582 186Q725 186 804 245T883 410Q883 509 825 561Q797 587 764 600T666 623L494 647Q316 672 217 764Q111 863
111 1042Q111 1235 242 1352T598 1470Q743 1470 850 1431T1051 1305L909 1165Q791 1278 592 1278Q467 1278 397 1215T326 1051Q326 964 381 915Q441 863 545 848L711 823Q810 808 873 783T983 715Q1102 611 1102 416Z" />
<glyph unicode="T" glyph-name="T" horiz-adv-x="1146" d="M1085 1260H684V0H463V1260H61V1458H1085V1260Z" />
<glyph unicode="U" glyph-name="U" horiz-adv-x="1382" d="M1214 492Q1214 344 1145 229T957 51T690 -12T424 50T237 228T168 492V1458H389V502Q389 356 471 271T690 186T910 271T993 502V1458H1214V492Z" />
<glyph unicode="V" glyph-name="V" horiz-adv-x="1155" d="M1145 1458L662 0H489L10 1458H240L575 397L911 1458H1145Z" />
<glyph unicode="W" glyph-name="W" horiz-adv-x="1783" d="M1761 1458L1380 0H1188L891 1022L596 0H403L23 1458H256L510 416L803 1458H981L1274 416L1528 1458H1761Z" />
<glyph unicode="X" glyph-name="X" horiz-adv-x="1183" d="M1163 0H907L590 559L274 0H20L471 748L49 1458H303L590 936L879 1458H1133L711 748L1163 0Z" />
<glyph unicode="Y" glyph-name="Y" horiz-adv-x="1114" d="M1104 1458L668 600V0H446V600L10 1458H252L557 817L862 1458H1104Z" />
<glyph unicode="Z" glyph-name="Z" horiz-adv-x="1130" d="M1032 0H98V190L772 1260H127V1458H1032V1278L354 199H1032V0Z" />
<glyph unicode="[" glyph-name="bracketleft" horiz-adv-x="710" d="M623 -152H176V1610H623V1423H385V35H623V-152Z" />
<glyph unicode="\" glyph-name="backslash" horiz-adv-x="778" d="M778 -152H578L0 1593H201L778 -152Z" />
<glyph unicode="]" glyph-name="bracketright" horiz-adv-x="710" d="M535 -152H88V33H330V1425H88V1610H535V-152Z" />
<glyph unicode="^" glyph-name="asciicircum" horiz-adv-x="1169" d="M1030 821H813L584 1245L354 821H137L489 1473H680L1030 821Z" />
<glyph unicode="_" glyph-name="underscore" horiz-adv-x="1169" d="M1169 -352H0V-209H1169V-352Z" />
<glyph unicode="`" glyph-name="grave" horiz-adv-x="1024" d="M618 1227H461L233 1559H465L618 1227Z" />
<glyph unicode="a" glyph-name="a" horiz-adv-x="1085" d="M930 0H725V94Q667 36 606 12T449 -12Q263 -12 170 82Q88 167 88 305Q88 440 180 522T446 604H721V678Q721 778 667 825T494 872Q409 872 360 850T266 772L129 901Q201 985 285 1018T502 1051Q930 1051
930 694V0ZM721 375V459H477Q386 459 339 420T291 309Q291 162 481 162Q550 162 594 173T676 221Q721 266 721 375Z" />
<glyph unicode="b" glyph-name="b" horiz-adv-x="1132" d="M1016 589T1016 520T1012 398T997 282T962 169T899 80Q807 -12 645 -12Q556 -12 492 15T371 111V0H166V1458H375V934Q430 999 495 1025T647 1051Q808 1051 899 958Q937 921 961 870T997 758T1012 643ZM807
520Q807 582 803 627T786 720T749 797T687 845T592 864T497 846T434 797T398 721T380 628T375 520T379 413T397 320T434 242T497 193T592 174T686 193T749 242T785 319T803 413T807 520Z" />
<glyph unicode="c" glyph-name="c" horiz-adv-x="993" d="M918 135Q844 57 764 23T575 -12Q503 -12 438 5T312 63T209 164T139 315T113 520T139 724T208 875T312 975T437 1033T575 1051Q684 1051 764 1017T918 905L774 766Q725 820 681 842T575 864Q453 864 383
772Q350 730 336 671T322 520T336 369T383 266Q453 174 575 174Q636 174 680 196T774 272L918 135Z" />
<glyph unicode="d" glyph-name="d" horiz-adv-x="1132" d="M967 0H762V111Q706 43 641 16T487 -12Q327 -12 233 80Q163 150 140 260T117 520Q117 668 140 778T233 958Q326 1051 485 1051Q573 1051 638 1025T758 934V1458H967V0ZM758 520Q758 582 754 627T737 720T700
797T638 845T543 864T448 846T385 797T349 721T331 628T326 520T330 413T348 320T385 242T448 193T543 174T637 193T700 242T736 319T754 413T758 520Z" />
<glyph unicode="e" glyph-name="e" horiz-adv-x="1103" d="M993 459H319Q319 324 388 246T584 168Q668 168 723 192T836 274L969 150Q884 65 798 27T580 -12Q478 -12 396 16T249 105T149 271T113 520Q113 769 232 910T553 1051Q758 1051 875 914T993 551V459ZM786
604Q783 685 758 745T679 841T553 877T426 841T346 745Q323 691 319 604H786Z" />
<glyph unicode="f" glyph-name="f" horiz-adv-x="671" d="M614 860H408V0H199V860H80V1020H199V1180Q199 1257 228 1321T324 1426T483 1468H614V1290H522Q408 1290 408 1169V1020H614V860Z" />
<glyph unicode="g" glyph-name="g" horiz-adv-x="1124" d="M958 6Q958 -188 838 -310T514 -432Q395 -432 312 -401T147 -295L281 -162Q333 -211 382 -232T506 -254Q630 -254 690 -179T750 10V143Q695 78 631 52T481 25Q325 25 233 117Q164 186 141 286T117 539Q117
690 140 790T233 961Q325 1051 483 1051Q570 1051 635 1024T756 928V1038H958V6ZM750 483T750 539T747 636T730 723T695 797T633 845T539 864Q484 864 445 845T383 797T347 723T330 636T326 539Q326 483 330 441T347 354T382 280T444 232T539 213Q593 213 632 232T694
280T730 354T746 441Z" />
<glyph unicode="h" glyph-name="h" horiz-adv-x="1159" d="M1004 0H795V637Q795 750 737 807T586 864T434 807T375 637V0H166V1458H375V934Q481 1051 643 1051Q813 1051 908 947T1004 670V0Z" />
<glyph unicode="i" glyph-name="i" horiz-adv-x="540" d="M375 0H166V1038H375V0ZM381 1243H160V1464H381V1243Z" />
<glyph unicode="j" glyph-name="j" horiz-adv-x="540" d="M375 -137Q375 -261 303 -342T90 -424H-39V-246H53Q114 -246 140 -217T166 -125V1038H375V-137ZM381 1243H160V1464H381V1243Z" />
<glyph unicode="k" glyph-name="k" horiz-adv-x="1122" d="M1077 0H819L528 479L375 305V0H166V1458H375V559L778 1038H1032L672 631L1077 0Z" />
<glyph unicode="l" glyph-name="l" horiz-adv-x="636" d="M573 0H444Q303 0 232 81T160 287V1458H369V299Q369 237 394 208T481 178H573V0Z" />
<glyph unicode="m" glyph-name="m" horiz-adv-x="1796" d="M1640 0H1432V633Q1432 749 1374 806T1223 864Q1132 864 1070 807T1008 643V0H799V633Q799 749 741 806T590 864Q496 864 436 806T375 633V0H166V1038H371V934Q422 990 495 1020T647 1051Q843 1051 942
899Q1067 1051 1268 1051Q1432 1051 1530 956Q1640 850 1640 664V0Z" />
<glyph unicode="n" glyph-name="n" horiz-adv-x="1163" d="M1008 0H799V633Q799 749 741 806T590 864Q496 864 436 806T375 633V0H166V1038H371V934Q478 1051 647 1051Q806 1051 903 956Q1008 855 1008 664V0Z" />
<glyph unicode="o" glyph-name="o" horiz-adv-x="1099" d="M983 520Q983 378 957 281T860 111Q742 -12 549 -12Q358 -12 240 111Q170 183 144 280T117 520Q117 661 143 758T240 928Q359 1051 549 1051Q741 1051 860 928Q930 855 956 758T983 520ZM774 520Q774
622 760 691T702 805Q645 864 549 864Q456 864 397 805Q354 761 340 692T326 520Q326 419 340 349T397 236Q459 174 549 174Q642 174 702 236Q746 279 760 349T774 520Z" />
<glyph unicode="p" glyph-name="p" horiz-adv-x="1132" d="M1016 589T1016 520T1012 398T997 282T962 169T899 80Q807 -12 647 -12Q560 -12 495 14T375 106V-420H166V1038H371V928Q427 996 492 1023T645 1051Q723 1051 789 1027T899 958Q937 921 961 870T997 758T1012
643ZM807 520Q807 582 803 627T786 720T749 797T687 845T592 864T497 846T434 797T398 721T380 628T375 520T379 413T397 320T434 242T497 193T592 174T686 193T749 242T785 319T803 413T807 520Z" />
<glyph unicode="q" glyph-name="q" horiz-adv-x="1132" d="M967 -420H758V106Q703 41 638 15T485 -12Q327 -12 233 80Q163 150 140 260T117 520Q117 668 140 778T233 958Q326 1051 487 1051Q576 1051 641 1024T762 928V1038H967V-420ZM758 520Q758 582 754 627T737
720T700 797T638 845T543 864T448 846T385 797T349 721T331 628T326 520T330 413T348 320T385 242T448 193T543 174T637 193T700 242T736 319T754 413T758 520Z" />
<glyph unicode="r" glyph-name="r" horiz-adv-x="899" d="M895 952L737 795Q700 832 667 848T582 864Q495 864 435 800T375 631V0H166V1038H371V926Q412 982 486 1016T647 1051Q724 1051 783 1028T895 952Z" />
<glyph unicode="s" glyph-name="s" horiz-adv-x="1021" d="M934 317Q934 159 815 74T502 -12Q361 -12 257 20T66 137L203 274Q308 166 502 166Q603 166 666 202T729 309Q729 421 590 432L424 446Q117 473 117 733Q117 881 228 966T508 1051Q759 1051 893 934L762
801Q671 877 506 877Q415 877 366 840T317 743Q317 638 461 625L625 610Q774 598 854 526T934 317Z" />
<glyph unicode="t" glyph-name="t" horiz-adv-x="700" d="M600 0H475Q337 0 264 84T190 289V860H72V1020H190V1335H399V1020H600V860H399V299Q399 178 514 178H600V0Z" />
<glyph unicode="u" glyph-name="u" horiz-adv-x="1163" d="M997 0H793V104Q685 -12 516 -12Q359 -12 260 82Q156 183 156 375V1038H365V406Q365 290 422 232T573 174Q667 174 727 233T788 406V1038H997V0Z" />
<glyph unicode="v" glyph-name="v" horiz-adv-x="964" d="M948 1038L567 0H397L16 1038H238L483 307L727 1038H948Z" />
<glyph unicode="w" glyph-name="w" horiz-adv-x="1521" d="M1505 1038L1182 0H1004L760 725L518 0H338L16 1038H238L438 307L680 1038H842L1081 307L1282 1038H1505Z" />
<glyph unicode="x" glyph-name="x" horiz-adv-x="1030" d="M985 0H733L516 354L297 0H45L401 530L59 1038H311L516 700L719 1038H971L631 530L985 0Z" />
<glyph unicode="y" glyph-name="y" horiz-adv-x="958" d="M950 1038L492 -207Q462 -288 416 -336Q339 -412 203 -412H119V-223H172Q237 -223 267 -200T322 -113L379 49L16 1038H238L485 307L727 1038H950Z" />
<glyph unicode="z" glyph-name="z" horiz-adv-x="960" d="M862 0H88V166L604 852H117V1038H862V872L342 186H862V0Z" />
<glyph unicode="{" glyph-name="braceleft" horiz-adv-x="833" d="M741 -152H596Q447 -152 377 -82Q303 -8 303 133V475Q303 561 266 598Q229 637 168 637H92V821H168Q227 821 266 860Q303 897 303 983V1325Q303 1466 377 1540Q447 1610 596 1610H741V1423H662Q568
1423 543 1395Q512 1364 512 1264V934Q512 887 501 851T468 792T426 756T377 729Q406 716 426 703T468 666T501 607T512 524V195Q512 94 543 63Q568 35 662 35H741V-152Z" />
<glyph unicode="|" glyph-name="bar" horiz-adv-x="692" d="M451 -152H242V1610H451V-152Z" />
<glyph unicode="}" glyph-name="braceright" horiz-adv-x="833" d="M741 637H668Q606 637 567 598Q530 559 530 475V133Q530 58 513 8T457 -82Q387 -152 238 -152H92V35H172Q264 35 291 63Q322 95 322 195V524Q322 571 333 607T366 666T408 702T459 729Q429 742
409 755T367 792T334 851T322 934V1264Q322 1363 291 1395Q264 1423 172 1423H92V1610H238Q387 1610 457 1540Q496 1501 513 1451T530 1325V983Q530 899 567 860Q608 821 668 821H741V637Z" />
<glyph unicode="~" glyph-name="asciitilde" horiz-adv-x="1175" d="M1087 573Q997 483 932 449T784 414Q692 414 555 481Q459 530 393 530Q347 530 311 513T219 440L88 571Q179 662 243 696T389 731Q444 731 494 715T616 664Q716 614 780 614Q827 614 863 631T954
705L1087 573Z" />
</font>
</defs>
</svg>
